PathFileType	4	(X/Y/Z)	D:\Share\Shared_Data\Ergonomics\Sit To Stand Pertubation\S3\Perturbed.trc
DataRate	CameraRate	NumFrames	NumMarkers	Units	OrigDataRate	OrigDataStartFrame	OrigNumFrames	
100	100	11	18	m	100	6339	251
Frame#	Time	R_ASIS			R_Pelvis			V_Sacral			L_Pelvis			L_ASIS			Clavical			R_Acromium			L_Acromium			Sternum			Torso			R_Thigh_Med			R_Thigh_Lat			R_Thigh			R_Shank_Med			R_Shank_Lat			R_Shank			R_Heel			R_Toe			
		X1	Y1	Z1	X2	Y2	Z2	X3	Y3	Z3	X4	Y4	Z4	X5	Y5	Z5	X6	Y6	Z6	X7	Y7	Z7	X8	Y8	Z8	X9	Y9	Z9	X10	Y10	Z10	X11	Y11	Z11	X12	Y12	Z12	X13	Y13	Z13	X14	Y14	Z14	X15	Y15	Z15	X16	Y16	Z16	X17	Y17	Z17	X18	Y18	Z18	

6339	63.38	0.24777821	0.79661938	0.1419657	0.16055379	0.85028955	0.20358025	0.057262936	0.90934448	0.014238745	0.1517467	0.85894189	-0.19496608	0.2446526	0.79991052	-0.13760629	0.45258588	1.1562161	-0.0097566652	0.45419263	1.218536	0.15524632	0.44484232	1.2240785	-0.16358658	0.43848318	1.0727812	-0.0050558419	0.44830511	1.135985	-0.072342079	0.42475491	0.46620425	0.0627155	0.39870517	0.44215927	0.16959454	0.3427507	0.652159	0.10342006	0.30627441	0.10598346	0.093627571	0.29046323	0.093458252	0.17530031	0.32460718	0.27378641	0.18960074	0.23055714	0.049788551	0.13427695	0.44812643	0.052892551	0.11643845
6340	63.39	0.25266719	0.80551312	0.14178285	0.16457561	0.85720862	0.2027037	0.061256027	0.91601959	0.014013454	0.1557402	0.86601556	-0.19492548	0.24884676	0.807617	-0.1378765	0.45254227	1.169064	-0.0097934437	0.45267169	1.2317278	0.15530008	0.44339252	1.2366846	-0.16378482	0.43935107	1.0851306	-0.0049239311	0.4484556	1.1488889	-0.072621506	0.42488846	0.46777521	0.063767017	0.39697757	0.44291635	0.16970479	0.34600977	0.65430176	0.1044528	0.30607504	0.10606837	0.093816788	0.29035092	0.093519424	0.17546471	0.32343515	0.27424298	0.18976166	0.23045665	0.04985638	0.13431616	0.44806406	0.052306416	0.11630984
6341	63.4	0.25774341	0.81429309	0.14158937	0.16867932	0.86402002	0.20196008	0.065295265	0.92243195	0.013757409	0.15986554	0.87290881	-0.1949023	0.25323915	0.81526056	-0.13807901	0.45227579	1.1818292	-0.009794755	0.45083099	1.2448551	0.15539549	0.44172256	1.249187	-0.16392288	0.43994308	1.097448	-0.0049400282	0.44846149	1.1617267	-0.072874207	0.42503442	0.46932883	0.064851318	0.39518475	0.4436785	0.16978981	0.34927161	0.65632568	0.105589	0.30590543	0.10614168	0.093994972	0.29025546	0.093610023	0.17562866	0.32222272	0.27470981	0.18989554	0.23039049	0.049887779	0.13429755	0.44803323	0.051766537	0.11622117
6342	63.41	0.26296393	0.82293842	0.1413844	0.17286111	0.8707085	0.20135455	0.069382889	0.92857867	0.013464337	0.16413647	0.87959723	-0.19491069	0.25782562	0.82280927	-0.1382144	0.45179318	1.1944641	-0.0097650185	0.44868008	1.2578475	0.15553015	0.43982623	1.2615419	-0.16401057	0.44027942	1.1097133	-0.0051268907	0.44831598	1.1744543	-0.073104294	0.42519232	0.47086194	0.065934166	0.39333344	0.44444412	0.16981236	0.35253699	0.65822375	0.10680291	0.30576517	0.10620187	0.094156487	0.29017514	0.093725693	0.1757888	0.32097791	0.27518649	0.18998242	0.23036449	0.049862759	0.13420866	0.44802963	0.051324211	0.11617596
6343	63.42	0.26828806	0.83142908	0.14116963	0.17711623	0.87724622	0.20085735	0.073520027	0.93445306	0.01313246	0.1685591	0.88606299	-0.19496107	0.26259216	0.83023499	-0.13830164	0.451103	1.206921	-0.0097083025	0.44623312	1.2706364	0.1557005	0.4376991	1.2737046	-0.16405734	0.44042905	1.1219019	-0.0054426546	0.4480127	1.1870271	-0.073315552	0.42536865	0.47236377	0.06698716	0.39142697	0.44521085	0.16974098	0.35580447	0.65998798	0.10806359	0.30564896	0.10624775	0.094297112	0.29011182	0.093855469	0.17593282	0.31970718	0.27567285	0.19000201	0.23037801	0.04977483	0.13405098	0.44804718	0.050999496	0.11616949
6344	63.43	0.27368356	0.83974329	0.14095061	0.18143855	0.88360602	0.20042635	0.077706367	0.94004657	0.012763345	0.17313347	0.89229541	-0.19505908	0.26752032	0.83751776	-0.13836623	0.45021475	1.2191532	-0.0096274281	0.44350903	1.2831548	0.15590309	0.43534232	1.2856307	-0.16406996	0.44047592	1.1339832	-0.0058075981	0.44754709	1.1994023	-0.073509995	0.4255658	0.47381894	0.067985374	0.38946457	0.4459761	0.16955139	0.35907059	0.66160968	0.10933471	0.30554608	0.10627827	0.094414696	0.29006769	0.093984001	0.17604248	0.31841348	0.27616901	0.18993466	0.23042242	0.049642525	0.13384842	0.44807941	0.050784828	0.11619042
6345	63.44	0.27912854	0.84785712	0.1407364	0.18582059	0.88977179	0.20002722	0.081940277	0.94534991	0.012360627	0.17785501	0.89828937	-0.19520634	0.27259174	0.84464777	-0.1384299	0.44913889	1.2311156	-0.0095236082	0.44053104	1.2953431	0.15613524	0.43276303	1.297278	-0.16405159	0.44048044	1.1459153	-0.0061489377	0.44691653	1.2115377	-0.073687073	0.42577261	0.47521115	0.068904388	0.38744199	0.44673813	0.16922733	0.36232935	0.6630799	0.11057478	0.3054425	0.10629256	0.094509575	0.29004083	0.094101898	0.17610634	0.31709421	0.2766748	0.18976393	0.23048334	0.049502357	0.13364	0.44811905	0.050659821	0.1162251
6346	63.45	0.28460995	0.85574469	0.14053845	0.1902543	0.89573755	0.19963727	0.086219055	0.95035449	0.011928897	0.1827159	0.90404285	-0.19540079	0.27778943	0.85162183	-0.13850864	0.44788599	1.242766	-0.0093962393	0.43732562	1.3071484	0.1563958	0.42997476	1.3086064	-0.16400189	0.44046436	1.1576476	-0.0064242129	0.44612122	1.2233934	-0.07384362	0.4259642	0.47652481	0.069719391	0.38535419	0.4474964	0.16876057	0.36557031	0.66439227	0.11173905	0.30532449	0.1062903	0.094584343	0.29002661	0.094212379	0.17612973	0.3157413	0.27719037	0.18948021	0.23054631	0.049385818	0.13345955	0.44815891	0.050600929	0.11626131
6347	63.46	0.29011914	0.86338098	0.14036803	0.19473222	0.90149994	0.19924222	0.090539047	0.95505243	0.011473276	0.18770549	0.90955414	-0.19563768	0.2830975	0.85843689	-0.1386131	0.44646622	1.2540669	-0.0092427931	0.43392078	1.3185259	0.15668562	0.42699829	1.3195802	-0.16391711	0.44041983	1.1691266	-0.0066160445	0.44516373	1.2349318	-0.073973816	0.42610651	0.47774634	0.070405266	0.38319644	0.44825162	0.16814995	0.36877759	0.66554614	0.11278233	0.30518225	0.10627231	0.094642601	0.29002368	0.094324005	0.17612996	0.31434375	0.27771567	0.18908339	0.23060124	0.049306591	0.13332352	0.44819284	0.050587063	0.11629069
6348	63.47	0.29564825	0.87074591	0.1402337	0.19924924	0.90705298	0.19883405	0.094895691	0.95943713	0.010999458	0.19281085	0.9148205	-0.19591176	0.28850235	0.86508557	-0.13874834	0.44488931	1.2649847	-0.0090592089	0.43034409	1.3294396	0.15700706	0.4238642	1.3301667	-0.16379034	0.44032373	1.1803015	-0.0067202244	0.44404852	1.2461165	-0.074069862	0.42616116	0.47886429	0.070936638	0.38096597	0.4490051	0.16739973	0.37193103	0.66654675	0.11366122	0.30501199	0.10624043	0.0946866	0.29003589	0.094437584	0.17612029	0.31289243	0.27825049	0.18858276	0.23064302	0.049264557	0.13323399	0.44821677	0.050601318	0.11630892
6349	63.48	0.30118921	0.87783063	0.14014027	0.20380283	0.91238422	0.19841046	0.099283493	0.96350427	0.010513973	0.19801489	0.91983655	-0.19621941	0.29399448	0.87155396	-0.13891069	0.44316473	1.2754886	-0.0088406782	0.42662183	1.3398604	0.15736296	0.42060986	1.3403386	-0.16361284	0.44014908	1.1911265	-0.0067380753	0.44278012	1.2569144	-0.074122993	0.42609015	0.47986893	0.071288078	0.37866364	0.44975757	0.16651813	0.37500851	0.66740466	0.11433591	0.30481525	0.10619676	0.094715302	0.2900683	0.094543251	0.17610196	0.31138409	0.27879303	0.18799396	0.23067068	0.049253227	0.13318489	0.44823044	0.050629852	0.11631422
